<svg width="169" height="50" viewBox="0 0 169 50" fill="none" xmlns="http://www.w3.org/2000/svg">
<g clip-path="url(#clip0)">
<path d="M167.572 44.0954C167.572 46.741 165.429 48.8838 162.779 48.8838H5.91235C3.2631 48.8838 1.11279 46.741 1.11279 44.0954V5.90941C1.11279 3.26516 3.2632 1.11475 5.91235 1.11475H162.777C165.429 1.11475 167.571 3.26516 167.571 5.90941L167.572 44.0954Z" fill="white"/>
<path d="M162.779 49.998H5.91237C2.653 49.998 0 47.3512 0 44.0956V5.91082C0 2.6527 2.653 0.00219727 5.91237 0.00219727H162.777C166.033 0.00219727 168.69 2.6527 168.69 5.91082V44.0956C168.692 47.3512 166.035 49.998 162.779 49.998Z" fill="#A6A6A6"/>
<path d="M167.572 44.0954C167.572 46.741 165.429 48.8838 162.779 48.8838H5.91235C3.2631 48.8838 1.11279 46.741 1.11279 44.0954V5.90941C1.11279 3.26516 3.2632 1.11475 5.91235 1.11475H162.777C165.429 1.11475 167.571 3.26516 167.571 5.90941L167.572 44.0954Z" fill="black"/>
<path d="M37.6673 24.7369C37.631 20.7074 40.9666 18.747 41.1192 18.6557C39.2301 15.9015 36.3021 15.5251 35.2732 15.4951C32.8139 15.2363 30.4285 16.9667 29.1757 16.9667C27.898 16.9667 25.9689 15.5201 23.8897 15.5626C21.2142 15.6039 18.7114 17.1529 17.3385 19.5584C14.5056 24.4631 16.6184 31.6707 19.3327 35.6352C20.6904 37.5781 22.277 39.7448 24.3536 39.6685C26.3852 39.586 27.1441 38.3745 29.5958 38.3745C32.0249 38.3745 32.7377 39.6685 34.8555 39.6197C37.036 39.586 38.4087 37.6694 39.719 35.7102C41.2881 33.4861 41.9181 31.2931 41.9432 31.1806C41.8931 31.1631 37.7098 29.5653 37.6673 24.7369ZM33.6665 12.8871C34.7591 11.5206 35.5069 9.66151 35.2993 7.7749C33.7177 7.84492 31.7399 8.86886 30.6008 10.2054C29.5931 11.3831 28.693 13.3135 28.9255 15.1288C30.7022 15.2613 32.5263 14.2324 33.6665 12.8871Z" fill="white"/>
<path d="M162.779 0.00219727H78.7562L111.666 49.998H162.779C166.034 49.998 168.691 47.3512 168.691 44.0918V5.91082C168.692 2.6527 166.035 0.00219727 162.779 0.00219727Z" fill="url(#paint0_linear)"/>
<path d="M67.094 39.3896H64.2547L62.6994 34.5024H57.2933L55.8118 39.3896H53.0476L58.4049 22.7515H61.713L67.094 39.3896ZM62.2307 32.452L60.8242 28.1075C60.6754 27.6636 60.3954 26.6184 59.9852 24.9731H59.9353C59.7702 25.6808 59.5064 26.726 59.1451 28.1075L57.7624 32.452H62.2307ZM80.8442 33.2434C80.8442 35.2838 80.2904 36.8966 79.1813 38.0807C78.1887 39.1346 76.9548 39.661 75.4831 39.661C73.8941 39.661 72.7514 39.0946 72.0575 37.9594V44.2544H69.392V31.3356C69.392 30.054 69.3583 28.7401 69.2933 27.3923H71.6375L71.7863 29.294H71.8362C72.7251 27.8612 74.0741 27.1447 75.8845 27.1447C77.2997 27.1447 78.4812 27.7035 79.4264 28.8225C80.3703 29.9441 80.8442 31.4169 80.8442 33.2434ZM78.1286 33.341C78.1286 32.1732 77.8661 31.2106 77.3385 30.4517C76.7621 29.6628 75.9882 29.2678 75.018 29.2678C74.3604 29.2678 73.7628 29.4877 73.229 29.9216C72.6938 30.3592 72.3438 30.9305 72.1801 31.6381C72.0976 31.9682 72.0563 32.237 72.0563 32.4497V34.4512C72.0563 35.3226 72.3239 36.0591 72.859 36.6617C73.3941 37.2618 74.0892 37.563 74.9444 37.563C75.9484 37.563 76.7298 37.1743 77.2886 36.4028C77.8486 35.6289 78.1286 34.6087 78.1286 33.341ZM94.643 33.2434C94.643 35.2838 94.0892 36.8966 92.9802 38.0807C91.9863 39.1346 90.7535 39.661 89.2808 39.661C87.6917 39.661 86.549 39.0946 85.8551 37.9594V44.2544H83.1896V31.3356C83.1896 30.054 83.1558 28.7401 83.0908 27.3923H85.435L85.5838 29.294H85.6338C86.5215 27.8612 87.8705 27.1447 89.682 27.1447C91.096 27.1447 92.2775 27.7035 93.2253 28.8225C94.168 29.9441 94.643 31.4169 94.643 33.2434ZM91.9263 33.341C91.9263 32.1732 91.6626 31.2106 91.1349 30.4517C90.5585 29.6628 89.7871 29.2678 88.8169 29.2678C88.1593 29.2678 87.5617 29.4877 87.0253 29.9216C86.4902 30.3592 86.1415 30.9305 85.9776 31.6381C85.8964 31.9682 85.8526 32.237 85.8526 32.4497V34.4512C85.8526 35.3226 86.1214 36.0591 86.654 36.6617C87.1891 37.2606 87.8842 37.563 88.7419 37.563C89.747 37.563 90.5284 37.1743 91.0861 36.4028C91.6462 35.6289 91.9263 34.6087 91.9263 33.341ZM110.071 34.7225C110.071 36.139 109.576 37.2905 108.592 38.1794C107.509 39.1496 105.998 39.6359 104.06 39.6359C102.269 39.6359 100.834 39.2908 99.7515 38.5995L100.368 36.3778C101.537 37.0704 102.821 37.4155 104.219 37.4155C105.224 37.4155 106.005 37.1879 106.563 36.7366C107.122 36.284 107.404 35.6789 107.404 34.9238C107.404 34.2475 107.17 33.681 106.712 33.2198C106.25 32.7597 105.488 32.3309 104.416 31.9371C101.503 30.8506 100.045 29.2615 100.045 27.1712C100.045 25.8059 100.56 24.6882 101.588 23.8143C102.616 22.9416 103.979 22.5054 105.674 22.5054C107.188 22.5054 108.45 22.7692 109.451 23.2955L108.782 25.4683C107.839 24.9582 106.775 24.7032 105.585 24.7032C104.645 24.7032 103.907 24.9345 103.38 25.3946C102.936 25.8059 102.711 26.3073 102.711 26.9023C102.711 27.5588 102.967 28.1039 103.477 28.5315C103.92 28.9252 104.727 29.3542 105.895 29.8143C107.328 30.3919 108.381 31.0645 109.055 31.8371C109.733 32.6096 110.071 33.5735 110.071 34.7225ZM118.906 29.3927H115.968V35.2176C115.968 36.6991 116.486 37.438 117.524 37.438C118 37.438 118.395 37.3979 118.708 37.3142L118.781 39.3384C118.256 39.5347 117.565 39.6334 116.708 39.6334C115.656 39.6334 114.833 39.3121 114.239 38.6695C113.648 38.0269 113.35 36.9504 113.35 35.4351V29.3877H111.6V27.3873H113.35V25.1907L115.968 24.4005V27.3873H118.906V29.3927ZM132.136 33.2922C132.136 35.1362 131.609 36.6502 130.556 37.8343C129.455 39.0533 127.989 39.6609 126.163 39.6609C124.4 39.6609 122.998 39.0771 121.953 37.9106C120.908 36.7415 120.385 35.2688 120.385 33.4922C120.385 31.633 120.926 30.1104 122.002 28.9264C123.081 27.7412 124.534 27.1486 126.36 27.1486C128.121 27.1486 129.535 27.7337 130.605 28.9014C131.628 30.0341 132.136 31.4969 132.136 33.2922ZM129.373 33.3535C129.373 32.2544 129.136 31.3117 128.659 30.5228C128.101 29.5701 127.3 29.0939 126.264 29.0939C125.196 29.0939 124.378 29.5701 123.82 30.5228C123.342 31.3117 123.105 32.2707 123.105 33.4034C123.105 34.5037 123.342 35.4488 123.82 36.2353C124.396 37.1879 125.2 37.6643 126.242 37.6643C127.26 37.6643 128.059 37.1779 128.637 36.2115C129.127 35.4039 129.373 34.4549 129.373 33.3535ZM140.804 29.7365C140.541 29.6877 140.258 29.6627 139.964 29.6627C139.027 29.6627 138.301 30.0153 137.791 30.7254C137.349 31.3505 137.126 32.1406 137.126 33.0946V39.3895H134.461V31.1706C134.461 29.789 134.434 28.5288 134.383 27.3936H136.705L136.802 29.6889H136.876C137.159 28.9001 137.601 28.2637 138.209 27.7873C138.803 27.3586 139.444 27.1447 140.136 27.1447C140.382 27.1447 140.604 27.1622 140.802 27.1936L140.804 29.7365ZM152.725 32.8234C152.725 33.301 152.694 33.7034 152.628 34.0323H144.631C144.661 35.2176 145.049 36.1252 145.792 36.7504C146.465 37.3081 147.337 37.588 148.407 37.588C149.591 37.588 150.671 37.4005 151.643 37.0217L152.06 38.8708C150.925 39.3659 149.585 39.6122 148.038 39.6122C146.178 39.6122 144.718 39.0644 143.655 37.9718C142.595 36.8779 142.063 35.4076 142.063 33.566C142.063 31.7581 142.557 30.2516 143.546 29.0502C144.581 27.7674 145.98 27.1259 147.741 27.1259C149.47 27.1259 150.779 27.7673 151.668 29.0502C152.372 30.0666 152.725 31.3268 152.725 32.8234ZM150.184 32.132C150.202 31.3406 150.027 30.6592 149.666 30.0828C149.205 29.3402 148.495 28.9701 147.543 28.9701C146.672 28.9701 145.962 29.3315 145.421 30.0566C144.978 30.633 144.714 31.3256 144.633 32.1295L150.184 32.132Z" fill="white"/>
<path d="M60.9455 16.7967H59.5488L58.7849 14.395H56.1282L55.3993 16.7967H54.0403L56.6733 8.6189H58.2986L60.9455 16.7967ZM58.5549 13.3873L57.8635 11.2519C57.791 11.0331 57.6572 10.5243 57.4509 9.71161H57.4259C57.3409 10.0629 57.2196 10.573 57.0371 11.2519L56.3582 13.3873H58.5549ZM67.5291 10.9006L65.2962 16.7967H64.0221L61.8618 10.9006H63.2695L64.2772 14.0187C64.4473 14.54 64.5923 15.0376 64.7011 15.5102H64.7373C64.8349 15.0864 64.9799 14.5888 65.1611 14.0187L66.1563 10.9006H67.5291ZM72.2825 16.7967L72.185 16.1177H72.1486C71.7485 16.6641 71.1659 16.9304 70.4259 16.9304C69.3706 16.9304 68.6179 16.1902 68.6179 15.195C68.6179 13.7398 69.8794 12.9871 72.0636 12.9871V12.8784C72.0636 12.102 71.651 11.7131 70.8384 11.7131C70.2557 11.7131 69.7457 11.8594 69.2981 12.1507L69.0317 11.2893C69.578 10.9492 70.257 10.7792 71.0583 10.7792C72.5986 10.7792 73.3763 11.5919 73.3763 13.2184V15.3901C73.3763 15.9852 73.4013 16.4465 73.4613 16.7979L72.2825 16.7967ZM72.1 13.8599C70.6435 13.8599 69.9158 14.2125 69.9158 15.0489C69.9158 15.6677 70.2921 15.9703 70.8135 15.9703C71.481 15.9703 72.1 15.4615 72.1 14.7701V13.8599ZM76.2945 9.92915C75.8582 9.92915 75.5181 9.58908 75.5181 9.14025C75.5181 8.69141 75.8695 8.36385 76.3195 8.36385C76.7684 8.36385 77.1322 8.69141 77.1198 9.14025C77.1198 9.61409 76.781 9.92915 76.2945 9.92915ZM76.9746 16.7967H75.6644V10.9006H76.9746V16.7967ZM80.6128 16.7967H79.3026V8.19507H80.6128V16.7967ZM86.1814 16.7967L86.0838 16.1177H86.0476C85.6475 16.6641 85.0649 16.9304 84.3248 16.9304C83.2696 16.9304 82.5169 16.1902 82.5169 15.195C82.5169 13.7398 83.7783 12.9871 85.9625 12.9871V12.8784C85.9625 12.102 85.5499 11.7131 84.7373 11.7131C84.1547 11.7131 83.6446 11.8594 83.197 12.1507L82.9295 11.2881C83.4759 10.948 84.1548 10.778 84.9562 10.778C86.4965 10.778 87.274 11.5906 87.274 13.2172V15.3888C87.274 15.9839 87.3004 16.4453 87.3579 16.7966H86.1814V16.7967ZM85.9989 13.8599C84.5423 13.8599 83.8147 14.2125 83.8147 15.0489C83.8147 15.6677 84.1909 15.9703 84.7123 15.9703C85.3799 15.9703 85.9989 15.4615 85.9989 14.7701V13.8599ZM92.5827 16.9305C91.7463 16.9305 91.1286 16.5779 90.7285 15.8865H90.7022L90.6272 16.7967H89.5108C89.547 16.3241 89.5595 15.789 89.5595 15.2077V8.19507H90.871V11.7632H90.896C91.2848 11.1081 91.9138 10.7806 92.7764 10.7806C94.1967 10.7806 95.1919 11.9945 95.1919 13.7649C95.1919 15.5952 94.0866 16.9305 92.5827 16.9305ZM92.3163 11.8095C91.5624 11.8095 90.8724 12.4646 90.8724 13.3748V14.4062C90.8724 15.2189 91.4924 15.8865 92.2939 15.8865C93.2753 15.8865 93.8592 15.0864 93.8592 13.8124C93.8578 12.6234 93.2502 11.8095 92.3163 11.8095ZM98.4387 16.7967H97.1298V8.19507H98.4387V16.7967ZM105.571 14.1637H101.638C101.664 15.2802 102.402 15.9103 103.495 15.9103C104.077 15.9103 104.611 15.8128 105.084 15.6315L105.288 16.5417C104.73 16.7842 104.075 16.9055 103.311 16.9055C101.466 16.9055 100.374 15.7403 100.374 13.9337C100.374 12.1258 101.492 10.7668 103.163 10.7668C104.668 10.7668 105.615 11.8833 105.615 13.5698C105.62 13.7999 105.609 14.0062 105.571 14.1637ZM104.37 13.2298C104.37 12.3196 103.908 11.677 103.071 11.677C102.318 11.677 101.726 12.3321 101.638 13.2298H104.37ZM113.513 16.9305C111.79 16.9305 110.674 15.644 110.674 13.8974C110.674 12.0771 111.814 10.7793 113.612 10.7793C115.308 10.7793 116.451 12.0045 116.451 13.8011C116.451 15.644 115.273 16.9305 113.513 16.9305ZM113.563 11.737C112.616 11.737 112.01 12.6222 112.01 13.8599C112.01 15.0739 112.629 15.959 113.55 15.959C114.472 15.959 115.089 15.0126 115.089 13.8349C115.091 12.6347 114.484 11.737 113.563 11.737ZM123.495 16.7967H122.186V13.4111C122.186 12.3684 121.786 11.8458 120.997 11.8458C120.22 11.8458 119.685 12.5134 119.685 13.2898V16.7967H118.376V12.5859C118.376 12.0646 118.363 11.5057 118.328 10.8993H119.48L119.542 11.8095H119.578C119.928 11.1794 120.646 10.7781 121.446 10.7781C122.682 10.7781 123.495 11.7245 123.495 13.2648V16.7967H123.495ZM132.068 11.8833H130.626V14.7463C130.626 15.4752 130.88 15.839 131.389 15.839C131.62 15.839 131.815 15.814 131.971 15.7778L132.008 16.773C131.753 16.8706 131.411 16.9192 130.99 16.9192C129.957 16.9192 129.341 16.3491 129.341 14.8563V11.8833H128.481V10.9006H129.341V9.82038L130.626 9.43155V10.8993H132.068V11.8833ZM139.007 16.7967H137.695V13.4361C137.695 12.3809 137.295 11.847 136.506 11.847C135.827 11.847 135.197 12.3084 135.197 13.2423V16.7967H133.886V8.19507H135.197V11.737H135.222C135.635 11.0944 136.23 10.7781 136.994 10.7781C138.243 10.7781 139.007 11.7482 139.007 13.2898V16.7967ZM145.702 14.1637H141.77C141.795 15.2802 142.532 15.9103 143.625 15.9103C144.209 15.9103 144.741 15.8128 145.214 15.6315L145.419 16.5417C144.861 16.7842 144.205 16.9055 143.441 16.9055C141.596 16.9055 140.504 15.7403 140.504 13.9337C140.504 12.1258 141.622 10.7668 143.294 10.7668C144.798 10.7668 145.745 11.8833 145.745 13.5698C145.75 13.7999 145.738 14.0062 145.702 14.1637ZM144.5 13.2298C144.5 12.3196 144.04 11.677 143.202 11.677C142.448 11.677 141.856 12.3321 141.769 13.2298H144.5Z" fill="white"/>
</g>
<defs>
<linearGradient id="paint0_linear" x1="123.724" y1="50.1338" x2="123.724" y2="5.06775" gradientUnits="userSpaceOnUse">
<stop stop-color="#1A1A1A" stop-opacity="0.1"/>
<stop offset="0.123" stop-color="#212121" stop-opacity="0.151"/>
<stop offset="0.308" stop-color="#353535" stop-opacity="0.227"/>
<stop offset="0.532" stop-color="#575757" stop-opacity="0.318"/>
<stop offset="0.783" stop-color="#858585" stop-opacity="0.421"/>
<stop offset="1" stop-color="#B3B3B3" stop-opacity="0.51"/>
</linearGradient>
<clipPath id="clip0">
<rect width="168.691" height="50" fill="white"/>
</clipPath>
</defs>
</svg>
