<svg width="153" height="50" viewBox="0 0 153 50" fill="none" xmlns="http://www.w3.org/2000/svg">
<g clip-path="url(#clip0)">
<path d="M152.853 43.2425C152.853 46.9739 149.828 50 146.098 50H6.75688C3.0258 50.0003 0 46.9742 0 43.2425V6.75688C0 3.0258 3.0258 0 6.75688 0H146.097C149.828 0 152.853 3.0258 152.853 6.75688V43.2425H152.853Z" fill="black"/>
<path d="M11.4652 9.62622V43.4862L28.5394 26.5564L11.4652 9.62622Z" fill="url(#paint0_linear)"/>
<path d="M33.1252 22.0087L26.2329 18.0296L11.4652 9.50293V9.62605L28.5394 26.5562L33.1252 22.0087Z" fill="url(#paint1_linear)"/>
<path d="M11.4652 43.486V43.6091L26.2329 35.0822L33.1249 31.1031L28.5394 26.5562L11.4652 43.486Z" fill="url(#paint2_linear)"/>
<path d="M33.125 22.0088L28.5392 26.5563L33.1247 31.1032L41.0013 26.556L33.125 22.0088Z" fill="url(#paint3_linear)"/>
<path d="M118.957 33.1751C118.316 33.1751 117.731 33.0568 117.201 32.8204C116.671 32.5837 116.226 32.2197 115.866 31.729H115.759C115.831 32.304 115.866 32.8491 115.866 33.364V37.4161H114.376V23.1483H115.589L115.795 24.4961H115.866C116.25 23.9566 116.697 23.5679 117.206 23.3282C117.715 23.0885 118.299 22.9687 118.957 22.9687C120.263 22.9687 121.271 23.4151 121.981 24.3075C122.69 25.1998 123.045 26.452 123.045 28.0628C123.045 29.6801 122.684 30.9362 121.963 31.8324C121.242 32.7277 120.24 33.1751 118.957 33.1751ZM118.742 24.2355C117.735 24.2355 117.008 24.5143 116.559 25.0711C116.109 25.6281 115.879 26.5148 115.866 27.7308V28.0628C115.866 29.4467 116.097 30.4365 116.559 31.0327C117.02 31.629 117.76 31.9263 118.778 31.9263C119.629 31.9263 120.295 31.5823 120.777 30.8935C121.259 30.2049 121.5 29.2555 121.5 28.0449C121.5 26.8175 121.259 25.8749 120.777 25.2193C120.295 24.563 119.616 24.2355 118.742 24.2355ZM126.499 32.9952H125.008V19.0152H126.499V32.9952ZM135.074 32.9952L134.777 31.5937H134.705C134.214 32.2111 133.724 32.6291 133.236 32.847C132.748 33.0661 132.138 33.1752 131.408 33.1752C130.432 33.1752 129.667 32.9235 129.112 32.4206C128.558 31.9176 128.281 31.2022 128.281 30.2733C128.281 28.2851 129.872 27.2428 133.052 27.1465L134.724 27.0924V26.4816C134.724 25.7088 134.557 25.138 134.224 24.7701C133.892 24.4013 133.36 24.2172 132.63 24.2172C131.809 24.2172 130.88 24.4689 129.845 24.9718L129.386 23.8308C129.872 23.5673 130.403 23.3608 130.981 23.211C131.559 23.0613 132.139 22.9863 132.72 22.9863C133.894 22.9863 134.764 23.2466 135.33 23.7678C135.896 24.289 136.179 25.1245 136.179 26.2748V32.995H135.074V32.9952H135.074ZM131.704 31.9445C132.632 31.9445 133.361 31.6898 133.892 31.1809C134.421 30.672 134.687 29.959 134.687 29.0421V28.1527L133.195 28.2152C132.009 28.2579 131.155 28.4414 130.63 28.7687C130.106 29.095 129.844 29.6027 129.844 30.2916C129.844 30.8304 130.007 31.241 130.334 31.5219C130.66 31.8037 131.117 31.9445 131.704 31.9445ZM137.044 23.1483H138.643L140.8 28.7639C141.273 30.0459 141.566 30.9712 141.681 31.5404H141.752C141.83 31.2344 141.994 30.7123 142.242 29.9718C142.491 29.2319 143.304 26.9579 144.681 23.1483H146.281L142.049 34.3613C141.63 35.4694 141.14 36.2556 140.579 36.7206C140.02 37.1844 139.332 37.4161 138.518 37.4161C138.063 37.4161 137.614 37.3653 137.17 37.2636V36.0688C137.499 36.1406 137.868 36.1767 138.275 36.1767C139.3 36.1767 140.03 35.6017 140.468 34.4515L141.015 33.0502L137.044 23.1483ZM91.3296 24.0633C91.8029 24.4551 92.7915 25.2781 92.7915 26.8444C92.7915 28.3676 91.9264 29.0899 91.0612 29.7686C90.7935 30.036 90.4844 30.3253 90.4844 30.779C90.4844 31.2311 90.7932 31.4786 91.0206 31.6642L91.7623 32.2397C92.6684 33.0021 93.4914 33.7029 93.4914 35.1245C93.4914 37.0604 91.6171 39.0163 88.0752 39.0163C85.0882 39.0163 83.6472 37.5956 83.6472 36.0706C83.6472 35.3295 84.0163 34.2796 85.2332 33.5579C86.5092 32.7753 88.2404 32.6734 89.1668 32.61C88.8776 32.2398 88.5489 31.8483 88.5489 31.2108C88.5489 30.8612 88.6523 30.655 88.7548 30.4066C88.5273 30.4276 88.3011 30.4482 88.0949 30.4482C85.9125 30.4482 84.6768 28.821 84.6768 27.2153C84.6768 26.2676 85.1098 25.2166 85.9944 24.4554C87.1688 23.4875 88.5692 23.3222 89.6824 23.3222H93.9242L92.606 24.0636H91.3296V24.0633H91.3296ZM89.8667 33.2086C89.7021 33.1871 89.5986 33.1871 89.3936 33.1871C89.2084 33.1871 88.0946 33.2292 87.2306 33.5182C86.7776 33.6817 85.4591 34.176 85.4591 35.6391C85.4591 37.1008 86.881 38.1527 89.085 38.1527C91.0609 38.1527 92.1125 37.2033 92.1125 35.9275C92.1125 34.875 91.4327 34.3212 89.8667 33.2086ZM90.4644 29.2946C90.9375 28.8204 90.9781 28.162 90.9781 27.7908C90.9781 26.3083 90.0929 24.0015 88.3839 24.0015C87.8477 24.0015 87.2716 24.2689 86.9419 24.6813C86.5923 25.1138 86.4883 25.6693 86.4883 26.2055C86.4883 27.5852 87.2916 29.8717 89.0637 29.8717C89.5787 29.8717 90.1336 29.6246 90.4644 29.2946ZM78.363 32.879C75.094 32.879 73.346 30.3289 73.346 28.0254C73.346 25.3313 75.5458 23.0293 78.6727 23.0293C81.6939 23.0293 83.586 25.3932 83.586 27.882C83.5862 30.3074 81.7158 32.879 78.363 32.879ZM80.9331 31.2135C81.4274 30.5549 81.5508 29.7327 81.5508 28.9301C81.5508 27.1199 80.6871 23.6659 78.1371 23.6659C77.4587 23.6659 76.7804 23.9337 76.287 24.3664C75.4849 25.0851 75.3402 25.9903 75.3402 26.8755C75.3402 28.9097 76.3479 32.2607 78.8367 32.2607C79.6385 32.2607 80.4612 31.8707 80.9331 31.2135ZM67.2176 32.879C63.9479 32.879 62.1997 30.3289 62.1997 28.0254C62.1997 25.3313 64.4004 23.0293 67.5263 23.0293C70.5485 23.0293 72.4402 25.3932 72.4402 27.882C72.4405 30.3074 70.5698 32.879 67.2176 32.879ZM69.7883 31.2135C70.2817 30.5549 70.4054 29.7327 70.4054 28.9301C70.4054 27.1199 69.5411 23.6659 66.9911 23.6659C66.313 23.6659 65.634 23.9337 65.1409 24.3664C64.3388 25.0851 64.1951 25.9903 64.1951 26.8755C64.1951 28.9097 65.2022 32.2607 67.6913 32.2607C68.4934 32.2607 69.3155 31.8707 69.7883 31.2135ZM60.629 32.5565L57.6722 33.2388C56.4727 33.4253 55.398 33.5893 54.2615 33.5893C48.5548 33.5893 46.3849 29.3924 46.3849 26.1051C46.3849 22.0949 49.4648 18.3745 54.7373 18.3745C55.8541 18.3745 56.9281 18.5395 57.8997 18.8084C59.4501 19.2427 60.1736 19.7797 60.6287 20.0902L58.9121 21.7234L58.1889 21.888L58.7056 21.0608C58.0031 20.3792 56.7201 19.1183 54.2816 19.1183C51.0149 19.1183 48.5542 21.6003 48.5542 25.2178C48.5542 29.1034 51.3664 32.7627 55.8723 32.7627C57.1968 32.7627 57.8776 32.4944 58.4982 32.2457V28.9181L55.3771 29.0833L57.0303 28.1934H61.4135L60.8764 28.7101C60.7306 28.8347 60.7106 28.8766 60.6694 29.0403C60.6479 29.2268 60.6284 29.8269 60.6284 30.0334V32.5566H60.629V32.5565Z" fill="#F9F9F9"/>
<path d="M97.8639 31.9611C97.1814 31.899 97.0385 31.7756 97.0385 30.9684V19.2675C97.0427 19.2229 97.0453 19.1772 97.0495 19.1342C97.1329 18.411 97.3394 18.2869 97.981 17.9143H95.0237L93.4727 18.6587H95.0533V18.668L95.0521 18.6605V31.4238C95.0521 31.8365 94.9705 31.8993 94.4944 32.5188H98.1541L98.9192 32.0651C98.568 32.0224 98.216 32.0024 97.8639 31.9611ZM106.276 32.1512C106.051 32.2746 105.826 32.419 105.601 32.5209C104.922 32.8287 104.224 32.9112 103.607 32.9112C102.951 32.9112 101.924 32.8687 100.876 32.11C99.4194 31.0825 98.7829 29.317 98.7829 27.7776C98.7829 24.5958 101.37 23.0356 103.484 23.0356C104.224 23.0356 104.984 23.22 105.6 23.6109C106.626 24.2871 106.893 25.17 107.036 25.6424L102.212 27.5936L100.631 27.7167C101.143 30.3241 102.909 31.8422 104.86 31.8422C105.907 31.8422 106.667 31.4734 107.365 31.125L106.276 32.1512ZM104.347 26.0321C104.737 25.8889 104.942 25.7652 104.942 25.478C104.942 24.6574 104.018 23.7125 102.909 23.7125C102.087 23.7125 100.548 24.3493 100.548 26.5661C100.548 26.9152 100.589 27.2846 100.61 27.6554L104.347 26.0321ZM108.258 23.176V24.5307H108.094V23.176H107.645V23.0356H108.706V23.176H108.258ZM110.105 24.5307V23.1635H110.098L109.68 24.5307H109.552L109.131 23.1635H109.125V24.5307H108.976V23.0356H109.232L109.613 24.2441H109.618L109.993 23.0356H110.253V24.5307H110.105Z" fill="#F9F9F9"/>
<path d="M50.4912 14.3489H49.4637C49.4637 14.2075 49.3663 13.8074 49.1715 13.1481H47.6883C47.4872 13.7966 47.3865 14.1968 47.3865 14.3489H46.4203C46.4203 14.2655 46.6701 13.5805 47.1698 12.2943C47.6694 11.0081 47.9193 10.2995 47.9193 10.1693H49.1329C49.1329 10.2912 49.3591 10.9893 49.8119 12.2639C50.2646 13.5384 50.4912 14.2332 50.4912 14.3489ZM49.008 12.5349C48.6419 11.4306 48.459 10.8336 48.459 10.7436H48.4076C48.4076 10.827 48.2181 11.4241 47.8395 12.5349H49.008ZM54.6307 14.3489H53.8379C53.8379 14.261 53.5436 13.7978 52.9551 12.959C52.3389 12.075 51.9878 11.4707 51.9023 11.1453H51.8509C51.9044 11.6139 51.9313 12.0376 51.9313 12.4166C51.9313 12.9452 51.9463 13.5896 51.9762 14.3492H51.1863C51.2183 13.6858 51.2344 12.9572 51.2344 12.1632C51.2344 11.382 51.2183 10.7174 51.1863 10.1696H52.1396C52.1396 10.2831 52.4038 10.7359 52.9324 11.5275C53.4952 12.3685 53.8185 12.939 53.9019 13.2387H53.95C53.8987 12.7615 53.8729 12.3335 53.8729 11.9546C53.8729 11.3748 53.858 10.7795 53.8281 10.1696H54.6308C54.6006 10.7003 54.5859 11.365 54.5859 12.1632C54.5856 12.9673 54.6006 13.6959 54.6307 14.3489ZM59.2835 12.1145C59.2835 12.7223 59.0886 13.2531 58.6992 13.7067C58.3095 14.1606 57.7638 14.3872 57.0619 14.3872C56.7451 14.3872 56.3085 14.3743 55.752 14.3486C55.7798 13.7022 55.7939 12.9733 55.7939 12.1626C55.7939 11.3838 55.7798 10.7192 55.752 10.169H56.3139C56.4059 10.169 56.5428 10.1657 56.7248 10.1594C56.9064 10.1531 57.0254 10.1498 57.081 10.1498C57.8535 10.1498 58.4135 10.3426 58.7617 10.7278C59.1095 11.113 59.2835 11.575 59.2835 12.1145ZM58.4072 12.2525C58.4072 11.8416 58.2874 11.4955 58.0477 11.2137C57.808 10.9325 57.442 10.7917 56.9498 10.7917C56.8577 10.7917 56.7316 10.8013 56.5708 10.8207C56.592 11.249 56.6028 11.696 56.6028 12.1625C56.6028 12.6742 56.6136 13.1813 56.6347 13.6843C56.7721 13.7119 56.9118 13.7259 57.0519 13.7261C57.5122 13.7261 57.8528 13.583 58.0743 13.2973C58.2958 13.0116 58.4072 12.6634 58.4072 12.2525ZM63.574 14.3489H62.6236C62.3753 13.5913 62.185 13.1236 62.0523 12.9461C61.9196 12.7683 61.7056 12.6795 61.4104 12.6795C61.286 12.6795 61.1674 12.6807 61.0541 12.6828C61.0541 13.233 61.0637 13.7883 61.0831 14.3489H60.1908C60.2185 13.7025 60.2326 12.9736 60.2326 12.1628C60.2326 11.3841 60.2186 10.7194 60.1908 10.1693H60.746C60.8103 10.1693 60.9445 10.166 61.1489 10.1597C61.3533 10.1534 61.5422 10.1501 61.7155 10.1501C62.6978 10.1501 63.1891 10.486 63.1891 11.1581C63.1891 11.691 62.9088 12.0621 62.3481 12.2722V12.3203C62.5642 12.3801 62.7537 12.549 62.9162 12.8257C63.0785 13.1027 63.2978 13.6104 63.574 14.3489ZM62.3702 11.3954C62.3702 10.9695 62.0962 10.7565 61.5484 10.7565C61.3473 10.7565 61.1694 10.7714 61.0156 10.8013C61.0392 11.133 61.0508 11.5655 61.0508 12.0983C61.1686 12.1028 61.2681 12.1046 61.3494 12.1046C62.0298 12.1049 62.3702 11.8685 62.3702 11.3954ZM68.1756 12.1819C68.1756 12.8388 67.9744 13.3836 67.5719 13.816C67.1694 14.2482 66.6718 14.4645 66.0792 14.4645C65.5141 14.4645 65.041 14.2661 64.6603 13.8689C64.2792 13.4721 64.0889 12.9673 64.0889 12.3556C64.0889 11.6987 64.29 11.1539 64.6926 10.7215C65.0948 10.2894 65.5924 10.073 66.1853 10.073C66.7504 10.073 67.2232 10.2708 67.6042 10.6668C67.9852 11.0628 68.1756 11.5675 68.1756 12.1819ZM67.2898 12.2749C67.2898 11.8275 67.1753 11.4647 66.9464 11.1865C66.7172 10.9083 66.4348 10.7693 66.0989 10.7693C65.7863 10.7693 65.5209 10.9095 65.3028 11.1898C65.0846 11.4701 64.975 11.8243 64.975 12.2525C64.975 12.6975 65.09 13.0597 65.3201 13.3391C65.5502 13.6185 65.832 13.7581 66.1662 13.7581C66.4784 13.7581 66.7441 13.6173 66.9623 13.3358C67.1804 13.0546 67.2898 12.7007 67.2898 12.2749ZM69.9908 14.3489H69.0823C69.1101 13.6855 69.1241 12.9569 69.1241 12.1628C69.1241 11.3817 69.1101 10.717 69.0823 10.1693H69.9908C69.963 10.7087 69.9489 11.373 69.9489 12.1628C69.9489 12.9694 69.963 13.6983 69.9908 14.3489ZM74.6438 12.1145C74.6438 12.7223 74.4489 13.2531 74.0595 13.7067C73.6699 14.1606 73.1242 14.3872 72.4222 14.3872C72.1054 14.3872 71.6688 14.3743 71.1123 14.3486C71.1401 13.7022 71.1542 12.9733 71.1542 12.1626C71.1542 11.3838 71.1401 10.7192 71.1123 10.169H71.6742C71.7662 10.169 71.9031 10.1657 72.0851 10.1594C72.2668 10.1531 72.3857 10.1498 72.4413 10.1498C73.2138 10.1498 73.7739 10.3426 74.122 10.7278C74.4699 11.113 74.6438 11.575 74.6438 12.1145ZM73.7676 12.2525C73.7676 11.8416 73.6477 11.4955 73.408 11.2137C73.1684 10.9325 72.8023 10.7917 72.3101 10.7917C72.218 10.7917 72.0919 10.8013 71.9311 10.8207C71.9524 11.249 71.9631 11.696 71.9631 12.1625C71.9631 12.6742 71.9739 13.1813 71.9951 13.6843C72.1324 13.7119 72.2722 13.7259 72.4123 13.7261C72.8725 13.7261 73.2132 13.583 73.4346 13.2973C73.6561 13.0116 73.7676 12.6634 73.7676 12.2525ZM80.8167 14.3489H79.7893C79.7893 14.2075 79.6919 13.8074 79.4967 13.1481H78.0135C77.8124 13.7966 77.7117 14.1968 77.7117 14.3489H76.7458C76.7458 14.2655 76.9957 13.5805 77.4954 12.2943C77.995 11.0081 78.2449 10.2995 78.2449 10.1693H79.4585C79.4585 10.2912 79.685 10.9893 80.1374 12.2639C80.5899 13.5384 80.8167 14.2332 80.8167 14.3489ZM79.3335 12.5349C78.9675 11.4306 78.7842 10.8336 78.7842 10.7436H78.7328C78.7328 10.827 78.5437 11.4241 78.1651 12.5349H79.3335ZM84.5612 11.2636C84.5612 11.7752 84.3712 12.153 83.9913 12.3968C83.6115 12.6407 83.1456 12.7629 82.5933 12.7629C82.4926 12.7629 82.4212 12.7608 82.3782 12.7566C82.3782 13.1592 82.3898 13.6896 82.4134 14.3489H81.5112C81.5389 13.7306 81.553 13.0017 81.553 12.1628C81.553 11.3924 81.539 10.7278 81.5112 10.1693H82.0697C82.1489 10.1693 82.3007 10.166 82.5255 10.1597C82.7502 10.1534 82.9448 10.1501 83.1097 10.1501C83.5161 10.1501 83.8598 10.2421 84.1401 10.4262C84.4205 10.6103 84.5612 10.8892 84.5612 11.2636ZM83.7331 11.4402C83.7331 10.9824 83.4292 10.7532 82.8214 10.7532C82.6693 10.7532 82.5088 10.7693 82.3399 10.8013C82.3635 11.2059 82.3752 11.6638 82.3752 12.1754C82.4287 12.1799 82.4908 12.1817 82.5614 12.1817C83.3425 12.1819 83.7331 11.9348 83.7331 11.4402ZM88.4116 11.2636C88.4116 11.7752 88.2215 12.153 87.842 12.3968C87.4621 12.6407 86.9959 12.7629 86.4437 12.7629C86.3429 12.7629 86.2715 12.7608 86.2285 12.7566C86.2285 13.1592 86.2402 13.6896 86.2638 14.3489H85.3615C85.3893 13.7306 85.4034 13.0017 85.4034 12.1628C85.4034 11.3924 85.3894 10.7278 85.3615 10.1693H85.9201C85.9993 10.1693 86.1511 10.166 86.3758 10.1597C86.6006 10.1534 86.7951 10.1501 86.9601 10.1501C87.3665 10.1501 87.7102 10.2421 87.9905 10.4262C88.2708 10.6103 88.4116 10.8892 88.4116 11.2636ZM87.5835 11.4402C87.5835 10.9824 87.2795 10.7532 86.6717 10.7532C86.5196 10.7532 86.3591 10.7693 86.1903 10.8013C86.2138 11.2059 86.2255 11.6638 86.2255 12.1754C86.279 12.1799 86.3412 12.1817 86.4117 12.1817C87.1929 12.1819 87.5835 11.9348 87.5835 11.4402ZM94.7067 12.1819C94.7067 12.8388 94.5056 13.3836 94.1031 13.816C93.7005 14.2485 93.2029 14.4645 92.6103 14.4645C92.0452 14.4645 91.5721 14.2661 91.1914 13.8689C90.8107 13.4721 90.62 12.9673 90.62 12.3556C90.62 11.6987 90.8212 11.1539 91.2237 10.7215C91.6262 10.2891 92.1238 10.073 92.7164 10.073C93.2815 10.073 93.7546 10.2708 94.1353 10.6668C94.5161 11.0628 94.7067 11.5675 94.7067 12.1819ZM93.8206 12.2749C93.8206 11.8275 93.7062 11.4647 93.4773 11.1865C93.2484 10.9083 92.9656 10.7693 92.6298 10.7693C92.3172 10.7693 92.0518 10.9095 91.8336 11.1898C91.6155 11.4701 91.5061 11.8243 91.5061 12.2525C91.5061 12.6975 91.6212 13.0597 91.8513 13.3391C92.0813 13.6185 92.3632 13.7581 92.697 13.7581C93.0096 13.7581 93.2749 13.6173 93.4931 13.3358C93.7116 13.0546 93.8206 12.7007 93.8206 12.2749ZM99.0579 14.3489H98.2651C98.2651 14.261 97.971 13.7978 97.3823 12.959C96.7661 12.075 96.4149 11.4707 96.3294 11.1453H96.278C96.3315 11.6139 96.3585 12.0376 96.3585 12.4166C96.3585 12.9452 96.3734 13.5896 96.4033 14.3492H95.6134C95.6454 13.6858 95.6615 12.9572 95.6615 12.1632C95.6615 11.382 95.6455 10.7174 95.6134 10.1696H96.5667C96.5667 10.2831 96.8312 10.7359 97.3596 11.5275C97.9226 12.3685 98.2457 12.939 98.3291 13.2387H98.3772C98.3258 12.7615 98.3001 12.3335 98.3001 11.9546C98.3001 11.3748 98.2851 10.7795 98.2552 10.1696H99.0579C99.0277 10.7003 99.0131 11.365 99.0131 12.1632C99.0131 12.9673 99.028 13.6959 99.0579 14.3489Z" fill="#F9F9FA"/>
</g>
<defs>
<linearGradient id="paint0_linear" x1="20.0023" y1="9.62627" x2="20.0023" y2="43.4863" gradientUnits="userSpaceOnUse">
<stop stop-color="#257CB0"/>
<stop offset="0.286" stop-color="#4A93B5"/>
<stop offset="0.767" stop-color="#78BCBB"/>
<stop offset="1" stop-color="#89CFBD"/>
</linearGradient>
<linearGradient id="paint1_linear" x1="11.4655" y1="18.0293" x2="33.1255" y2="18.0293" gradientUnits="userSpaceOnUse">
<stop stop-color="#52C1AD"/>
<stop offset="1" stop-color="#DEE89A"/>
</linearGradient>
<linearGradient id="paint2_linear" x1="22.295" y1="26.5562" x2="22.295" y2="43.6092" gradientUnits="userSpaceOnUse">
<stop stop-color="#EC413D"/>
<stop offset="0.167" stop-color="#DA4452"/>
<stop offset="0.575" stop-color="#B0487A"/>
<stop offset="0.862" stop-color="#954A92"/>
<stop offset="1" stop-color="#8A4A9D"/>
</linearGradient>
<linearGradient id="paint3_linear" x1="34.7704" y1="22.0088" x2="34.7704" y2="31.1029" gradientUnits="userSpaceOnUse">
<stop stop-color="#F58879"/>
<stop offset="0.119" stop-color="#F69079"/>
<stop offset="0.713" stop-color="#FCB877"/>
<stop offset="1" stop-color="#FEC874"/>
</linearGradient>
<clipPath id="clip0">
<rect width="152.853" height="50" fill="white"/>
</clipPath>
</defs>
</svg>
