<svg width="60" height="50" viewBox="0 0 60 50" fill="none" xmlns="http://www.w3.org/2000/svg">
<path d="M60 6.39262C57.7925 7.37262 55.42 8.03262 52.93 8.33012C55.4725 6.80762 57.425 4.39512 58.3425 1.52012C55.965 2.93012 53.33 3.95512 50.525 4.50762C48.2825 2.11512 45.08 0.620117 41.54 0.620117C33.5925 0.620117 27.7525 8.03512 29.5475 15.7326C19.32 15.2201 10.25 10.3201 4.1775 2.87262C0.9525 8.40512 2.505 15.6426 7.985 19.3076C5.97 19.2426 4.07 18.6901 2.4125 17.7676C2.2775 23.4701 6.365 28.8051 12.285 29.9926C10.5525 30.4626 8.655 30.5726 6.725 30.2026C8.29 35.0926 12.835 38.6501 18.225 38.7501C13.05 42.8076 6.53 44.6201 0 43.8501C5.4475 47.3426 11.92 49.3801 18.87 49.3801C41.725 49.3801 54.6375 30.0776 53.8575 12.7651C56.2625 11.0276 58.35 8.86012 60 6.39262V6.39262Z" fill="white"/>
</svg>
